<svg width="44" height="40" viewBox="0 0 44 40" fill="none" xmlns="http://www.w3.org/2000/svg">
<path fill-rule="evenodd" clip-rule="evenodd" d="M2.77901 0.0679882C2.6176 0.0996999 2.24186 0.246306 1.94405 0.393754C1.0169 0.852913 0.332959 1.69453 0.0837526 2.68294C-0.00082251 3.01838 -0.00821809 4.69916 0.00539845 20.4052L0.0204825 37.7568L0.268984 38.27C0.675896 39.1103 1.35684 39.6738 2.24843 39.9081C2.55903 39.9897 4.774 40 22.0006 40C39.32 40 41.4406 39.99 41.7528 39.9071C42.3215 39.756 42.6728 39.5596 43.0923 39.158C43.4026 38.861 43.5407 38.6685 43.7342 38.2636L43.9808 37.7477L43.9965 20.4204C44.0074 8.41339 43.9932 3.0009 43.9501 2.79279C43.7689 1.91562 43.0945 0.99009 42.2724 0.49033C41.5962 0.0792794 41.1689 0 39.6291 0H38.3189L38.1272 0.175196L37.9355 0.35039L37.9187 2.45748L37.9018 4.56456H22.0006H6.09945L6.0826 2.46378L6.06576 0.362943L5.90312 0.196517L5.74049 0.03003L4.40648 0.0201801C3.67277 0.0147747 2.94041 0.0362765 2.77901 0.0679882ZM4.80388 17.5607V33.8L3.61537 33.8284C2.35842 33.8583 1.94171 33.937 1.4717 34.2332C1.366 34.2999 1.26657 34.3544 1.25073 34.3544C1.23488 34.3544 1.22889 27.3476 1.23746 18.7838L1.25301 3.21321L1.39 2.86595C1.6594 2.18294 2.20183 1.65093 2.8377 1.44601C3.10651 1.3594 3.38083 1.33123 3.99686 1.32697L4.80388 1.32132V17.5607ZM41.3796 1.54228C42.1323 1.90553 42.6051 2.54913 42.7207 3.36787C42.7871 3.8379 42.7982 34.3544 42.732 34.3544C42.7069 34.3544 42.6286 34.313 42.558 34.2624C42.4875 34.2118 42.2505 34.0997 42.0314 34.0132C41.6595 33.8664 41.5525 33.8541 40.4152 33.8274L39.1974 33.7989V17.5537V1.30847L40.0924 1.33081C40.9525 1.35219 41.0028 1.36048 41.3796 1.54228ZM37.9062 20.2422C37.9062 35.6641 37.8916 34.9064 38.1908 35.0703C38.2658 35.1114 38.8047 35.1351 39.6602 35.1351C40.4144 35.1351 41.1484 35.1643 41.3221 35.2011C41.9071 35.3253 42.3784 35.7137 42.6073 36.2601C42.7348 36.5644 42.7565 37.1655 42.6515 37.4835C42.5361 37.8329 42.2168 38.2185 41.8607 38.4384L41.5203 38.6487L22.109 38.6641C2.73575 38.6795 2.69707 38.6793 2.37967 38.5578C1.209 38.1096 0.898867 36.4957 1.81986 35.6442C2.30818 35.1928 2.41905 35.1687 4.09958 35.1494C4.92273 35.1399 5.65644 35.1186 5.7301 35.102C5.80376 35.0854 5.91586 34.9847 5.9793 34.8783C6.09311 34.6873 6.09469 34.4939 6.09487 20.2853L6.0951 5.88589H22.0006H37.9062V20.2422ZM20.2692 9.9952C19.9462 10.1431 19.9189 10.2527 19.8978 11.4865C19.8807 12.4907 19.8679 12.6127 19.7804 12.6135C19.4435 12.6165 17.7468 13.3151 17.0581 13.7344L16.7815 13.9027L15.9967 13.1075C15.257 12.3579 15.1988 12.3124 14.9821 12.3132C14.8556 12.3138 14.7154 12.338 14.6704 12.3671C14.6255 12.3962 14.0779 12.9405 13.4536 13.5765C12.2757 14.7764 12.1825 14.9116 12.2889 15.265C12.3121 15.3422 12.6644 15.7512 13.0717 16.1738L13.8123 16.9422L13.7017 17.1347C13.3775 17.699 12.9858 18.5892 12.7817 19.2253C12.6549 19.6203 12.5512 19.9816 12.5512 20.0282C12.5512 20.0974 12.3484 20.1162 11.4398 20.1315L10.3283 20.1502L10.1485 20.3265L9.96877 20.5029V22.2831V24.0631L10.1061 24.1952C10.3213 24.4021 10.5738 24.4444 11.5924 24.4444H12.5419L12.5827 24.6396C12.7445 25.4144 13.1374 26.3977 13.6736 27.3696L13.8129 27.622L13.0354 28.4256C12.2961 29.1896 12.2578 29.2411 12.2578 29.4714C12.2578 29.618 12.3014 29.77 12.3685 29.8568C12.4294 29.9356 12.9579 30.4865 13.5429 31.0811C14.6981 32.2551 14.8483 32.3554 15.1978 32.1861C15.2972 32.1379 15.6898 31.7781 16.0702 31.3865L16.7619 30.6745L17.5765 31.0903C18.0614 31.3378 18.6939 31.6014 19.1394 31.7416L19.8877 31.9771V33.0215C19.8877 34.6947 19.8362 34.6553 22.0165 34.6533C24.1683 34.6514 24.1135 34.6959 24.1135 32.9521V31.9542L24.2749 31.9179C24.8338 31.792 25.8339 31.404 26.4778 31.0634L27.2281 30.6664L27.9451 31.3928C28.3395 31.7923 28.7199 32.1491 28.7904 32.1857C29.0734 32.3326 29.263 32.2699 29.6467 31.9023C30.2005 31.372 31.6417 29.8665 31.703 29.7544C31.7328 29.6999 31.7428 29.5462 31.7253 29.4126C31.6971 29.1982 31.6067 29.0808 30.9554 28.4129C30.5496 27.9966 30.2175 27.6375 30.2175 27.6149C30.2175 27.5923 30.3433 27.3359 30.497 27.0452C30.8935 26.2953 31.241 25.4052 31.3893 24.7598C31.4291 24.5863 31.4921 24.4426 31.5293 24.4402C31.5664 24.438 32.0125 24.4374 32.5205 24.439C33.4743 24.442 33.675 24.4058 33.9004 24.1897C34.0316 24.064 34.0325 24.0509 34.0325 22.2998C34.0325 20.3401 34.0265 20.307 33.6486 20.1794C33.533 20.1403 33.0772 20.1158 32.553 20.1204C32.0594 20.1247 31.6143 20.1265 31.5638 20.1242C31.5035 20.1215 31.446 20.0127 31.3952 19.8048C31.2053 19.0282 30.7636 17.9523 30.2983 17.1333L30.1882 16.9393L30.9382 16.1698C31.7237 15.3638 31.8263 15.1855 31.7006 14.8441C31.6271 14.6444 29.398 12.3752 29.2339 12.3331C28.9076 12.2493 28.7381 12.3574 27.9751 13.1359L27.2293 13.8969L26.948 13.7313C26.2176 13.3012 24.5438 12.6163 24.2163 12.6135C24.1226 12.6127 24.1135 12.5242 24.1132 11.6066C24.1128 10.4324 24.0654 10.1916 23.8018 10.0271C23.6284 9.91892 23.4983 9.91051 22.03 9.91249C20.8348 9.91411 20.402 9.93442 20.2692 9.9952ZM22.8223 12.3562C22.8586 13.7116 22.8491 13.6953 23.7195 13.8773C24.6934 14.0809 25.793 14.5523 26.6124 15.1174C26.9492 15.3497 27.0664 15.3984 27.2967 15.4016L27.5746 15.4054L28.309 14.6557L29.0434 13.906L29.6012 14.4745L30.1591 15.0429L29.4904 15.7347C29.1226 16.1151 28.7924 16.4855 28.7566 16.5576C28.6238 16.8253 28.6822 17.0464 29.0356 17.6148C29.6217 18.5574 29.9945 19.4715 30.212 20.4986C30.4221 21.4909 30.394 21.4755 32.0223 21.4931L32.8 21.5015V22.2823V23.0631H31.8257C30.4755 23.0631 30.3518 23.1339 30.2193 23.9828C30.0816 24.8644 29.6137 26.0183 28.9912 27.0115C28.6933 27.4867 28.6188 27.7775 28.7435 27.9789C28.771 28.0234 29.1063 28.3821 29.4884 28.776L30.1833 29.4921L29.6292 30.0615L29.0751 30.6309L28.3991 29.9466C28.0273 29.5702 27.6654 29.2323 27.5949 29.1957C27.34 29.0634 27.1042 29.1193 26.6432 29.4215C25.5916 30.1108 24.6385 30.4953 23.2789 30.7789C23.1911 30.7972 23.0525 30.8859 22.9708 30.976C22.8236 31.1385 22.8223 31.1489 22.8223 32.2034V33.2668L22.0249 33.285C21.5863 33.2951 21.2166 33.292 21.2032 33.2783C21.1899 33.2645 21.1781 32.778 21.177 32.1972C21.1753 31.2794 21.1615 31.1246 21.0718 31.0148C20.9324 30.8441 20.7882 30.773 20.4746 30.7204C19.5707 30.5685 18.2223 30.0032 17.3374 29.405C16.9126 29.1178 16.6639 29.0619 16.4063 29.1957C16.3359 29.2323 15.974 29.5702 15.6022 29.9466L14.9262 30.6309L14.3717 30.0611L13.8171 29.4913L14.5713 28.7114L15.3254 27.9315L15.2956 27.6744C15.2752 27.4984 15.1549 27.2375 14.9138 26.8468C14.3549 25.9411 13.8848 24.7259 13.7519 23.8438C13.6941 23.4603 13.5847 23.2742 13.3495 23.1601C13.237 23.1055 13.1236 23.0644 13.0975 23.069C13.0715 23.0736 12.6342 23.0741 12.1257 23.0702L11.2013 23.0631V22.2823C11.2013 21.6977 11.2197 21.5015 11.2747 21.5016C12.2714 21.5031 13.2541 21.4502 13.3761 21.3886C13.5927 21.279 13.6506 21.1538 13.7886 20.4973C14.0011 19.4865 14.4677 18.3642 15.0236 17.5265C15.275 17.1477 15.3454 16.9105 15.2826 16.6544C15.2584 16.5555 14.9569 16.1928 14.5429 15.7642L13.8441 15.041L14.4013 14.4733L14.9583 13.9056L15.6532 14.6207C16.0354 15.0141 16.4116 15.3599 16.4892 15.3894C16.7129 15.4743 16.9683 15.3931 17.4015 15.0995C18.2103 14.5511 19.2998 14.0916 20.3206 13.8682C20.7609 13.7718 20.8848 13.719 21.0175 13.5712L21.1789 13.3915V12.3097V11.2279L21.986 11.2446L22.793 11.2613L22.8223 12.3562ZM20.9148 15.3805C19.5431 15.5883 18.0614 16.3866 17.0662 17.4541C15.351 19.2939 14.7531 21.9914 15.5168 24.4444C16.1959 26.6261 18.075 28.4501 20.2222 29.0121C21.5388 29.3566 22.9832 29.3095 24.2015 28.8821C25.2529 28.5133 26.0984 27.9628 26.8898 27.1317C28.1485 25.81 28.808 24.1315 28.8087 22.2483C28.8091 21.0509 28.5582 20.029 28.007 18.9829C27.01 17.0905 25.3067 15.8137 23.2427 15.4112C22.7605 15.3172 21.4474 15.2999 20.9148 15.3805ZM23.2919 16.7893C23.8102 16.9121 24.6594 17.3026 25.1468 17.6422C26.1729 18.3572 27.0208 19.6094 27.3535 20.9009C27.5426 21.6348 27.5419 22.9342 27.3521 23.6637C26.8749 25.4975 25.4731 27.0307 23.7339 27.6208C21.7659 28.2887 19.6632 27.7906 18.1838 26.3063C17.3884 25.5082 16.9288 24.7148 16.6531 23.6636C16.4772 22.9927 16.459 21.6989 16.6162 21.037C16.8017 20.2557 17.068 19.6551 17.5157 19.009C17.7945 18.6066 18.4584 17.9167 18.7726 17.7029C19.5835 17.151 20.1984 16.8811 20.9975 16.7262C21.5637 16.6164 22.6934 16.6475 23.2919 16.7893ZM21.2168 19.0741C20.3858 19.2799 19.5832 19.9212 19.1663 20.7123C18.2185 22.5112 19.0858 24.7461 20.9917 25.4159C21.3038 25.5255 21.5108 25.5539 22.0006 25.5539C22.4904 25.5539 22.6975 25.5255 23.0095 25.4159C25.3285 24.601 25.9779 21.5962 24.2085 19.8691C23.452 19.1308 22.2632 18.8149 21.2168 19.0741ZM22.8716 20.5402C23.3018 20.7749 23.5462 21.0406 23.7534 21.4987C23.9652 21.9671 23.9656 22.5963 23.7546 23.0631C23.3041 24.0592 22.1726 24.5105 21.2288 24.0704C20.2564 23.6171 19.8103 22.4259 20.2604 21.4846C20.5369 20.9062 20.8572 20.6122 21.4632 20.3804C21.8356 20.2379 22.4439 20.307 22.8716 20.5402Z" fill="#E9F3F8"/>
</svg>
