<svg width="20" height="20" viewBox="0 0 20 20" fill="none" xmlns="http://www.w3.org/2000/svg">
<path fill-rule="evenodd" clip-rule="evenodd" d="M8.72582 0.0553273C8.47138 0.0886661 8.16756 0.138262 8.05066 0.165523C7.93375 0.192784 7.71283 0.24393 7.55969 0.27922C7.40658 0.314485 7.11401 0.398169 6.90953 0.465222C5.37036 0.969881 4.0763 1.76656 2.92442 2.91864C2.11623 3.72697 1.51281 4.56124 1.03119 5.53612C0.699736 6.2071 0.423219 6.95571 0.285511 7.55496C0.250353 7.70797 0.200291 7.92321 0.174284 8.03325C0.148253 8.1433 0.0968658 8.46968 0.060082 8.75853C-0.00405846 9.26221 -0.006284 9.31903 0.00564387 10.1466C0.0166965 10.9118 0.0253986 11.0562 0.0825874 11.4222C0.287787 12.7354 0.627394 13.7385 1.25534 14.8861C1.86519 16.0006 2.80794 17.0946 3.87465 17.9256C5.2103 18.9661 6.82121 19.6504 8.55078 19.9119C9.01904 19.9827 9.30081 19.9994 10.0386 20C10.6688 20.0005 10.8274 19.9924 11.2491 19.9379C11.7101 19.8784 11.8271 19.8564 12.4548 19.7113C13.4676 19.4772 14.6982 18.9236 15.64 18.2786C16.7053 17.5489 17.696 16.5358 18.4071 15.4488C18.9845 14.5663 19.4937 13.3988 19.7148 12.4507C19.9432 11.4711 19.9845 11.1392 19.9974 10.1773C20.0108 9.17247 19.9769 8.78376 19.8015 7.93321C19.5941 6.9281 19.2743 6.07079 18.7469 5.10704C18.1364 3.99141 17.1954 2.89935 16.1276 2.06756C15.894 1.88558 15.3862 1.53476 15.1899 1.41974C14.266 0.878468 13.6195 0.608231 12.4642 0.280445C12.2605 0.222647 11.8666 0.145114 11.4265 0.076161C11.0496 0.0171115 10.9349 0.0107839 10.1012 0.00310571C9.25097 -0.00474754 9.15675 -0.00117103 8.72582 0.0553273ZM11.2014 1.3273C12.002 1.43057 12.71 1.60137 13.3394 1.84299C13.477 1.89579 13.6289 1.95354 13.677 1.97132C13.7886 2.01254 14.6274 2.43806 14.6773 2.47876C14.6979 2.49559 14.7992 2.55924 14.9023 2.62019C15.1227 2.75047 15.5878 3.09293 15.853 3.32018C16.4174 3.80395 16.9658 4.44237 17.3808 5.09881C17.5495 5.3656 17.979 6.17331 18.0104 6.28253C18.0183 6.31004 18.0662 6.43384 18.117 6.55764C18.2194 6.8074 18.3737 7.30027 18.4694 7.68311C18.6405 8.36754 18.7294 9.15237 18.7302 9.98441C18.7305 10.301 18.7243 10.6049 18.7165 10.6597C18.7086 10.7145 18.6919 10.8954 18.6794 11.0616C18.6301 11.7145 18.4228 12.5994 18.132 13.398C18.0283 13.6827 17.7242 14.3246 17.5692 14.586C17.1586 15.2783 16.832 15.6993 16.2674 16.2639C15.7029 16.8286 15.2819 17.1553 14.5897 17.5659C14.3308 17.7196 13.6456 18.0452 13.4395 18.1125C13.3844 18.1305 13.2157 18.1899 13.0644 18.2445C12.7497 18.3581 12.1059 18.5204 11.659 18.5988C10.6931 18.7683 9.29758 18.7633 8.27571 18.5866C7.37542 18.431 6.49536 18.1347 5.70009 17.7195C5.54193 17.6369 5.37314 17.5441 5.325 17.5133C4.50873 16.9902 4.28925 16.82 3.76505 16.3036C3.27411 15.8199 2.96013 15.4194 2.47636 14.6597C2.38937 14.5231 2.06957 13.8807 1.97272 13.6481C1.81616 13.272 1.5967 12.5941 1.51933 12.2475C1.35669 11.519 1.29918 11.0272 1.28245 10.2217C1.26192 9.23377 1.32734 8.59138 1.54104 7.68311C1.76814 6.71776 2.18414 5.75006 2.70759 4.96949C3.47275 3.82844 4.53006 2.87534 5.70244 2.26977C6.70013 1.75446 7.89652 1.40751 9.03249 1.30412C9.49663 1.26188 10.8023 1.27583 11.2014 1.3273ZM6.52529 4.03562C6.16558 4.1082 5.73222 4.28853 5.51255 4.45702C5.0021 4.84859 4.66399 5.27006 4.51573 5.69966C4.11588 6.85834 4.88614 8.72114 6.83879 11.3177C7.47984 12.1702 7.77982 12.5439 8.23938 13.0628C9.58055 14.5771 11.2808 15.8037 12.6532 16.2471C12.8607 16.3141 13.2966 16.3992 13.4325 16.3992C13.7861 16.3992 14.2236 16.1753 14.5938 15.8051C14.9092 15.4896 15.2801 14.9288 15.4766 14.4702C15.6575 14.048 15.6093 13.5848 15.3564 13.3155C15.3039 13.2596 14.7214 12.885 14.4897 12.7581C14.4275 12.724 13.6423 12.2387 13.4414 12.1101C13.36 12.058 13.2193 11.9812 13.1288 11.9394C12.9817 11.8714 12.938 11.8632 12.7143 11.8616C12.4887 11.86 12.4502 11.8667 12.3207 11.9303C12.2279 11.9759 12.1445 12.0422 12.0847 12.1179C12.0338 12.1823 11.924 12.3058 11.8406 12.3923C11.6437 12.5966 11.5131 12.6425 11.2924 12.585C11.1377 12.5447 10.9123 12.391 10.7893 12.2419C10.7521 12.1969 10.6573 12.0924 10.5788 12.0099C10.4082 11.8308 9.8884 11.2493 9.43849 10.7343C9.2597 10.5296 9.06795 10.3109 9.01239 10.2482C8.95683 10.1854 8.85007 10.061 8.77516 9.97155C8.70024 9.88214 8.60359 9.7696 8.5604 9.72145C8.40742 9.55088 7.94176 8.98387 7.86281 8.87205C7.76159 8.72864 7.7174 8.55624 7.74751 8.42219C7.78537 8.25372 7.89584 8.09931 8.17621 7.82307C8.47541 7.52829 8.53132 7.43823 8.57411 7.18208C8.61802 6.91912 8.57861 6.72271 8.41667 6.39743C8.27689 6.11668 7.91415 5.41592 7.7034 5.01951C7.63393 4.88883 7.53453 4.6997 7.48255 4.59921C7.27117 4.19071 7.0834 4.04138 6.76642 4.02962C6.66817 4.026 6.55967 4.0287 6.52529 4.03562Z" fill="#1F5D78"/>
</svg>
